<svg width="17" height="16" viewBox="0 0 17 16" fill="none" xmlns="http://www.w3.org/2000/svg">
<g clip-path="url(#clip0_114_135)">
<path d="M16.5 7.5C16.5001 7.97831 16.3629 8.44661 16.1049 8.84932C15.8468 9.25203 15.4786 9.57226 15.044 9.772C14.8698 9.46634 14.6507 9.18857 14.394 8.948C14.778 8.84337 15.1048 8.59047 15.3023 8.24494C15.4999 7.8994 15.5521 7.48953 15.4475 7.1055C15.3429 6.72147 15.09 6.39473 14.7444 6.19716C14.3989 5.99959 13.989 5.94737 13.605 6.052C13.5359 6.07073 13.4636 6.0744 13.3929 6.06276C13.3222 6.05112 13.2549 6.02444 13.1955 5.98452C13.136 5.9446 13.0858 5.89238 13.0483 5.83139C13.0108 5.7704 12.9868 5.70206 12.978 5.631C12.9073 5.05833 12.6729 4.5182 12.303 4.07535C11.933 3.63251 11.4433 3.30575 10.8923 3.13424C10.3414 2.96273 9.75264 2.95375 9.19672 3.10837C8.6408 3.26299 8.14127 3.57465 7.75799 4.006C7.3307 3.98639 6.90256 4.01592 6.48199 4.094C6.86548 3.38781 7.45269 2.81343 8.16716 2.44562C8.88164 2.07781 9.6903 1.93361 10.4879 2.0318C11.2855 2.12999 12.035 2.46601 12.6389 2.99612C13.2429 3.52624 13.6732 4.22589 13.874 5.004C14.2124 4.98692 14.5508 5.03882 14.8685 5.15653C15.1862 5.27425 15.4767 5.45533 15.7223 5.68877C15.9679 5.92222 16.1635 6.20315 16.2972 6.51451C16.4309 6.82587 16.4999 7.16115 16.5 7.5Z" fill="white"/>
<path d="M7.50001 5C8.60706 4.99979 9.67534 5.40766 10.5006 6.14561C11.3258 6.88356 11.85 7.89981 11.973 9H12C12.6631 9 13.2989 9.26339 13.7678 9.73223C14.2366 10.2011 14.5 10.837 14.5 11.5C14.5 12.163 14.2366 12.7989 13.7678 13.2678C13.2989 13.7366 12.6631 14 12 14H3.50001C2.72537 14.0006 1.98053 13.7015 1.4214 13.1654C0.862274 12.6292 0.532207 11.8976 0.500291 11.1236C0.468376 10.3496 0.737086 9.59329 1.25017 9.01294C1.76326 8.43258 2.48095 8.07319 3.25301 8.01C3.56203 7.13024 4.13661 6.36814 4.89737 5.82895C5.65814 5.28977 6.56755 5.00012 7.50001 5ZM11 9.5C11.0006 8.64752 10.69 7.82413 10.1266 7.18438C9.56322 6.54462 8.78568 6.13249 7.93996 6.02533C7.09424 5.91818 6.23849 6.12336 5.53332 6.60238C4.82815 7.0814 4.32205 7.80131 4.11001 8.627C4.08132 8.73875 4.01486 8.83714 3.92191 8.90549C3.82896 8.97383 3.71523 9.00793 3.60001 9.002C3.33437 8.99021 3.06904 9.0315 2.81955 9.12347C2.57006 9.21544 2.34142 9.35624 2.14699 9.53762C1.95256 9.71901 1.79625 9.93735 1.68721 10.1799C1.57817 10.4224 1.51858 10.6842 1.51193 10.95C1.50528 11.2158 1.55171 11.4803 1.64849 11.728C1.74527 11.9756 1.89046 12.2015 2.07558 12.3924C2.2607 12.5833 2.48202 12.7353 2.7266 12.8397C2.97118 12.944 3.23411 12.9985 3.50001 13H12C12.2127 12.9995 12.4228 12.9538 12.6165 12.8659C12.8102 12.778 12.983 12.6499 13.1233 12.4901C13.2637 12.3303 13.3685 12.1425 13.4308 11.9392C13.4931 11.7358 13.5114 11.5215 13.4845 11.3105C13.4577 11.0996 13.3862 10.8967 13.275 10.7154C13.1637 10.5342 13.0152 10.3786 12.8393 10.2591C12.6633 10.1396 12.464 10.0589 12.2545 10.0223C12.0449 9.98577 11.83 9.99418 11.624 10.047C11.5495 10.0661 11.4717 10.0677 11.3965 10.0518C11.3213 10.0359 11.2507 10.0029 11.1904 9.95527C11.13 9.90767 11.0814 9.8468 11.0484 9.77738C11.0154 9.70796 10.9988 9.63186 11 9.555V9.5Z" fill="white"/>
</g>
<defs>
<clipPath id="clip0_114_135">
<rect width="16" height="16" fill="white" transform="translate(0.5)"/>
</clipPath>
</defs>
</svg>
