<svg width="16" height="16" viewBox="0 0 16 16" fill="none" xmlns="http://www.w3.org/2000/svg">
<g clip-path="url(#clip0_77_2397)">
<path d="M16 7.50002C16.0001 7.97833 15.8629 8.44662 15.6049 8.84934C15.3468 9.25205 14.9786 9.57228 14.544 9.77202C14.3698 9.46635 14.1507 9.18859 13.894 8.94802C14.278 8.84339 14.6048 8.59049 14.8023 8.24496C14.9999 7.89942 15.0521 7.48955 14.9475 7.10552C14.8429 6.72149 14.59 6.39474 14.2444 6.19718C13.8989 5.99961 13.489 5.94739 13.105 6.05202C13.0359 6.07075 12.9636 6.07442 12.8929 6.06278C12.8222 6.05114 12.7549 6.02446 12.6955 5.98454C12.636 5.94462 12.5858 5.8924 12.5483 5.83141C12.5108 5.77042 12.4868 5.70208 12.478 5.63102C12.4073 5.05834 12.1729 4.51821 11.803 4.07537C11.4331 3.63253 10.9433 3.30577 10.3923 3.13426C9.84137 2.96275 9.25265 2.95377 8.69673 3.10839C8.1408 3.26301 7.64127 3.57467 7.258 4.00602C6.8307 3.98641 6.40256 4.01594 5.982 4.09402C6.36549 3.38783 6.95269 2.81345 7.66717 2.44564C8.38165 2.07783 9.19031 1.93363 9.98788 2.03182C10.7855 2.13001 11.535 2.46603 12.1389 2.99614C12.7429 3.52625 13.1732 4.22591 13.374 5.00402C13.7124 4.98694 14.0508 5.03884 14.3685 5.15655C14.6862 5.27427 14.9767 5.45535 15.2223 5.68879C15.4679 5.92223 15.6635 6.20317 15.7972 6.51453C15.9309 6.82589 15.9999 7.16117 16 7.50002Z" fill="black"/>
<path d="M7 5C8.10705 4.99979 9.17532 5.40766 10.0005 6.14561C10.8258 6.88356 11.35 7.89981 11.473 9H11.5C12.163 9 12.7989 9.26339 13.2678 9.73223C13.7366 10.2011 14 10.837 14 11.5C14 12.163 13.7366 12.7989 13.2678 13.2678C12.7989 13.7366 12.163 14 11.5 14H3C2.22536 14.0006 1.48052 13.7015 0.921389 13.1654C0.362262 12.6292 0.0321955 11.8976 0.000279936 11.1236C-0.0316356 10.3496 0.237074 9.59329 0.750162 9.01294C1.26325 8.43258 1.98094 8.07319 2.753 8.01C3.06202 7.13024 3.6366 6.36814 4.39736 5.82895C5.15813 5.28977 6.06754 5.00012 7 5V5ZM10.5 9.5C10.5006 8.64752 10.19 7.82413 9.62662 7.18438C9.0632 6.54462 8.28567 6.13249 7.43995 6.02533C6.59423 5.91818 5.73848 6.12336 5.03331 6.60238C4.32814 7.0814 3.82204 7.80131 3.61 8.627C3.58131 8.73875 3.51485 8.83714 3.4219 8.90549C3.32895 8.97383 3.21522 9.00793 3.1 9.002C2.83436 8.99021 2.56903 9.0315 2.31954 9.12347C2.07005 9.21544 1.8414 9.35624 1.64698 9.53762C1.45255 9.71901 1.29624 9.93735 1.1872 10.1799C1.07816 10.4224 1.01857 10.6842 1.01192 10.95C1.00527 11.2158 1.05169 11.4803 1.14848 11.728C1.24526 11.9756 1.39045 12.2015 1.57557 12.3924C1.76069 12.5833 1.98201 12.7353 2.22659 12.8397C2.47117 12.944 2.7341 12.9985 3 13H11.5C11.7127 12.9995 11.9228 12.9538 12.1165 12.8659C12.3102 12.778 12.4829 12.6499 12.6233 12.4901C12.7637 12.3303 12.8685 12.1425 12.9308 11.9392C12.9931 11.7358 13.0114 11.5215 12.9845 11.3105C12.9577 11.0996 12.8862 10.8967 12.775 10.7154C12.6637 10.5342 12.5152 10.3786 12.3393 10.2591C12.1633 10.1396 11.964 10.0589 11.7544 10.0223C11.5449 9.98577 11.33 9.99418 11.124 10.047C11.0495 10.0661 10.9717 10.0677 10.8965 10.0518C10.8213 10.0359 10.7507 10.0029 10.6904 9.95527C10.63 9.90767 10.5814 9.8468 10.5484 9.77738C10.5154 9.70796 10.4988 9.63186 10.5 9.555V9.5Z" fill="black"/>
</g>
<defs>
<clipPath id="clip0_77_2397">
<rect width="16" height="16" fill="white"/>
</clipPath>
</defs>
</svg>
