<svg width="16" height="16" viewBox="0 0 16 16" fill="none" xmlns="http://www.w3.org/2000/svg">
<path d="M8 1.33331C4.44667 4.36665 2.66667 6.98665 2.66667 9.19998C2.66667 12.52 5.2 14.6666 8 14.6666C10.8 14.6666 13.3333 12.52 13.3333 9.19998C13.3333 6.98665 11.5533 4.36665 8 1.33331ZM8 13.3333C5.76667 13.3333 4 11.62 4 9.19998C4 7.63998 5.3 5.57331 8 3.10665C10.7 5.57331 12 7.63331 12 9.19998C12 11.62 10.2333 13.3333 8 13.3333ZM5.22 9.33331C5.46667 9.33331 5.66667 9.50665 5.71333 9.74665C5.98667 11.2266 7.23333 11.7333 8.14 11.66C8.42667 11.6466 8.66667 11.8733 8.66667 12.16C8.66667 12.4266 8.45333 12.6466 8.18667 12.66C6.76667 12.7466 5.10667 11.9333 4.72667 9.91331C4.71508 9.84184 4.71916 9.7687 4.73862 9.69895C4.75808 9.6292 4.79245 9.56452 4.83936 9.50936C4.88628 9.45421 4.94461 9.4099 5.01033 9.3795C5.07605 9.3491 5.14759 9.33335 5.22 9.33331Z" fill="black"/>
</svg>
