<svg width="60" height="60" viewBox="0 0 60 60" fill="none" xmlns="http://www.w3.org/2000/svg">
<path d="M54.5425 52.3325C54.8356 52.6256 55.0002 53.0231 55.0002 53.4375C55.0002 53.852 54.8356 54.2495 54.5425 54.5425C54.2494 54.8356 53.8519 55.0002 53.4375 55.0002C53.023 55.0002 52.6256 54.8356 52.3325 54.5425L42.1462 44.355L33.64 53.3863C33.1725 53.8827 32.6085 54.2782 31.9825 54.5486C31.3565 54.8189 30.6819 54.9584 30 54.9584C29.3181 54.9584 28.6435 54.8189 28.0175 54.5486C27.3915 54.2782 26.8275 53.8827 26.36 53.3863L13.75 40H13.7975C10.5321 36.1635 8.74238 31.288 8.74999 26.25C8.74319 22.0694 9.9755 17.9806 12.2912 14.5L5.45749 7.66878C5.16443 7.37571 4.99979 6.97823 4.99979 6.56378C4.99979 6.35856 5.04021 6.15535 5.11874 5.96575C5.19727 5.77616 5.31238 5.60389 5.45749 5.45878C5.6026 5.31366 5.77487 5.19856 5.96447 5.12002C6.15407 5.04149 6.35727 5.00107 6.56249 5.00107C6.97695 5.00107 7.37443 5.16571 7.66749 5.45878L54.5425 52.3338V52.3325ZM22.8962 25.1063C22.4496 26.4304 22.3818 27.8529 22.7004 29.2135C23.019 30.5741 23.7114 31.8186 24.6995 32.8067C25.6876 33.7948 26.9322 34.4873 28.2927 34.8059C29.6533 35.1245 31.0759 35.0567 32.4 34.61L22.8962 25.1063ZM16.4825 9.85253L27.18 20.5513C28.5468 19.9946 30.0474 19.8535 31.494 20.1457C32.9405 20.4379 34.2688 21.1504 35.3123 22.194C36.3559 23.2375 37.0683 24.5657 37.3605 26.0123C37.6527 27.4589 37.5117 28.9595 36.955 30.3263L46.3962 39.7675C49.5404 35.9653 51.2573 31.1839 51.25 26.25C51.25 14.5138 41.7362 5.00003 30 5.00003C25.0663 4.99237 20.2849 6.70877 16.4825 9.85253V9.85253Z" fill="white"/>
</svg>
