<svg width="31" height="31" viewBox="0 0 31 31" fill="none" xmlns="http://www.w3.org/2000/svg">
<path d="M15.5 16.7917C17.6401 16.7917 19.375 15.0568 19.375 12.9167C19.375 10.7766 17.6401 9.04169 15.5 9.04169C13.3599 9.04169 11.625 10.7766 11.625 12.9167C11.625 15.0568 13.3599 16.7917 15.5 16.7917Z" stroke="#74A3FE" stroke-width="2" stroke-linecap="round" stroke-linejoin="round"/>
<path d="M15.5 2.58334C12.7594 2.58334 10.1311 3.67203 8.19319 5.60991C6.25531 7.54778 5.16663 10.1761 5.16663 12.9167C5.16663 15.3605 5.68588 16.9596 7.10413 18.7292L15.5 28.4167L23.8958 18.7292C25.314 16.9596 25.8333 15.3605 25.8333 12.9167C25.8333 10.1761 24.7446 7.54778 22.8067 5.60991C20.8689 3.67203 18.2405 2.58334 15.5 2.58334V2.58334Z" stroke="#74A3FE" stroke-width="2" stroke-linecap="round" stroke-linejoin="round"/>
</svg>
