<svg width="24" height="24" viewBox="0 0 24 24" fill="none" xmlns="http://www.w3.org/2000/svg">
<g clip-path="url(#clip0_139_245)">
<rect width="24" height="24" rx="5" fill="#3E8BFF"/>
<circle cx="18.5" cy="9.5" r="4.5" fill="#E9E122"/>
<path d="M13.002 7.009C16.17 7.009 17.968 9.106 18.229 11.639H18.309C18.7933 11.6383 19.2729 11.7331 19.7206 11.9178C20.1682 12.1026 20.5751 12.3737 20.9179 12.7157C21.2608 13.0577 21.5329 13.4639 21.7187 13.9111C21.9046 14.3583 22.0005 14.8377 22.001 15.322C22.0004 15.8062 21.9044 16.2855 21.7185 16.7326C21.5326 17.1797 21.2604 17.5857 20.9176 17.9276C20.5748 18.2695 20.1679 18.5406 19.7204 18.7253C19.2728 18.9099 18.7932 19.0047 18.309 19.004H7.69403C7.20984 19.0047 6.73027 18.9099 6.28269 18.7253C5.83511 18.5406 5.42829 18.2695 5.08546 17.9276C4.74262 17.5857 4.47049 17.1797 4.28459 16.7326C4.0987 16.2855 4.00268 15.8062 4.00203 15.322C4.00255 14.8377 4.09847 14.3583 4.28431 13.9111C4.47014 13.4639 4.74226 13.0577 5.0851 12.7157C5.42795 12.3737 5.83482 12.1026 6.28246 11.9178C6.7301 11.7331 7.20976 11.6383 7.69403 11.639H7.77403C8.03703 9.089 9.83403 7.009 13.002 7.009V7.009ZM10 4C11.617 4 13.05 4.815 13.9 6.062C13.602 6.02637 13.3022 6.00867 13.002 6.009C10.008 6.009 7.83103 7.686 7.06503 10.222L6.99703 10.462L6.93903 10.7L6.73303 10.739C5.94461 10.9067 5.21285 11.2751 4.60861 11.8085C4.00436 12.342 3.54811 13.0224 3.28403 13.784C2.75239 13.3763 2.35829 12.8156 2.15465 12.1773C1.95102 11.539 1.94761 10.8537 2.14489 10.2134C2.34217 9.57309 2.73069 9.00851 3.25824 8.59551C3.78579 8.1825 4.42711 7.94084 5.09603 7.903L5.35303 7.897C5.54639 6.80501 6.11808 5.81598 6.96781 5.10339C7.81754 4.3908 8.89105 4.00016 10 4V4Z" fill="#DFE7EB"/>
<line x1="12.7071" y1="2" x2="15" y2="4.29289" stroke="#E9E122" stroke-linecap="round"/>
<line x1="17.5792" y1="0.40558" x2="18.1423" y2="3.59896" stroke="#E9E122" stroke-linecap="round"/>
<line x1="22.0626" y1="0.666548" x2="20.6666" y2="3.59331" stroke="#E9E122" stroke-linecap="round"/>
<line x1="25.1159" y1="3.70614" x2="22.7062" y2="5.87589" stroke="#E9E122" stroke-linecap="round"/>
</g>
<defs>
<clipPath id="clip0_139_245">
<rect width="24" height="24" rx="5" fill="white"/>
</clipPath>
</defs>
</svg>
