<svg width="16" height="16" viewBox="0 0 16 16" fill="none" xmlns="http://www.w3.org/2000/svg">
<path d="M8 8.00003H9V9.00003H8V8.00003ZM9 9.00003H10V10H9V9.00003ZM10 10H11V11H10V10ZM10 8.00003H11V9.00003H10V8.00003ZM8 10H9V11H8V10ZM10 6.00003C9.48464 6.01376 8.98484 5.82275 8.61 5.46881C8.23516 5.11486 8.01582 4.62682 8 4.11153C8.00932 3.74362 8.12251 3.38585 8.3265 3.07953L9.585 1.20703C9.63335 1.14265 9.69602 1.0904 9.76805 1.05441C9.84007 1.01843 9.91948 0.999695 10 0.999695C10.0805 0.999695 10.1599 1.01843 10.232 1.05441C10.304 1.0904 10.3666 1.14265 10.415 1.20703L11.6575 3.05503C11.8699 3.36743 11.9887 3.73395 12 4.11153C11.9842 4.62682 11.7648 5.11486 11.39 5.46881C11.0152 5.82275 10.5154 6.01376 10 6.00003ZM10 2.38153L9.172 3.61303C9.06853 3.75951 9.00887 3.93241 9 4.11153C9.01584 4.36156 9.12982 4.59522 9.31711 4.76162C9.5044 4.92803 9.74984 5.01372 10 5.00003C10.2502 5.01372 10.4956 4.92803 10.6829 4.76162C10.8702 4.59522 10.9842 4.36156 11 4.11153C10.9888 3.9227 10.9237 3.74103 10.8125 3.58803L10 2.38153Z" fill="black"/>
<path d="M14 2C13.7349 2.00026 13.4807 2.10571 13.2932 2.29319C13.1057 2.48066 13.0003 2.73486 13 3V13H3V5H4V9L4.5 10L5 9V5H6V7L6.5 8L7 7V4H3V3C2.99974 2.73486 2.89429 2.48066 2.70681 2.29319C2.51934 2.10571 2.26514 2.00026 2 2H1V3H2V13C2.00026 13.2651 2.10571 13.5193 2.29319 13.7068C2.48066 13.8943 2.73486 13.9997 3 14H13C13.2651 13.9997 13.5193 13.8943 13.7068 13.7068C13.8943 13.5193 13.9997 13.2651 14 13V3H15V2H14Z" fill="black"/>
</svg>
