<svg width="17" height="16" viewBox="0 0 17 16" fill="none" xmlns="http://www.w3.org/2000/svg">
<g clip-path="url(#clip0_114_146)">
<path d="M13.8667 7.33333H3.13333C2.78355 7.33333 2.5 7.61688 2.5 7.96667V8.03333C2.5 8.38311 2.78355 8.66667 3.13333 8.66667H13.8667C14.2164 8.66667 14.5 8.38311 14.5 8.03333V7.96667C14.5 7.61688 14.2164 7.33333 13.8667 7.33333Z" fill="white"/>
<path d="M13.8667 10.6667H3.13333C2.78355 10.6667 2.5 10.9502 2.5 11.3V11.3667C2.5 11.7164 2.78355 12 3.13333 12H13.8667C14.2164 12 14.5 11.7164 14.5 11.3667V11.3C14.5 10.9502 14.2164 10.6667 13.8667 10.6667Z" fill="white"/>
<path d="M13.8667 4H3.13333C2.78355 4 2.5 4.28355 2.5 4.63333V4.7C2.5 5.04978 2.78355 5.33333 3.13333 5.33333H13.8667C14.2164 5.33333 14.5 5.04978 14.5 4.7V4.63333C14.5 4.28355 14.2164 4 13.8667 4Z" fill="white"/>
</g>
<defs>
<clipPath id="clip0_114_146">
<rect width="16" height="16" fill="white" transform="translate(0.5)"/>
</clipPath>
</defs>
</svg>
