<svg width="16" height="16" viewBox="0 0 16 16" fill="none" xmlns="http://www.w3.org/2000/svg">
<path d="M13.3667 7.33331H2.63333C2.28355 7.33331 2 7.61687 2 7.96665V8.03331C2 8.38309 2.28355 8.66665 2.63333 8.66665H13.3667C13.7164 8.66665 14 8.38309 14 8.03331V7.96665C14 7.61687 13.7164 7.33331 13.3667 7.33331Z" fill="black"/>
<path d="M13.3667 10.6667H2.63333C2.28355 10.6667 2 10.9502 2 11.3V11.3667C2 11.7165 2.28355 12 2.63333 12H13.3667C13.7164 12 14 11.7165 14 11.3667V11.3C14 10.9502 13.7164 10.6667 13.3667 10.6667Z" fill="black"/>
<path d="M13.3667 4H2.63333C2.28355 4 2 4.28355 2 4.63333V4.7C2 5.04978 2.28355 5.33333 2.63333 5.33333H13.3667C13.7164 5.33333 14 5.04978 14 4.7V4.63333C14 4.28355 13.7164 4 13.3667 4Z" fill="black"/>
</svg>
