<svg width="16" height="16" viewBox="0 0 16 16" fill="none" xmlns="http://www.w3.org/2000/svg">
<path d="M8 10.6667C8.83333 10.6667 9.54178 10.3751 10.1253 9.79202C10.7084 9.20846 11 8.50002 11 7.66669C11 6.83335 10.7084 6.12491 10.1253 5.54135C9.54178 4.95824 8.83333 4.66669 8 4.66669C7.16667 4.66669 6.45822 4.95824 5.87467 5.54135C5.29156 6.12491 5 6.83335 5 7.66669C5 8.50002 5.29156 9.20846 5.87467 9.79202C6.45822 10.3751 7.16667 10.6667 8 10.6667ZM8 9.46669C7.5 9.46669 7.07511 9.29158 6.72533 8.94135C6.37511 8.59158 6.2 8.16669 6.2 7.66669C6.2 7.16669 6.37511 6.74158 6.72533 6.39135C7.07511 6.04158 7.5 5.86669 8 5.86669C8.5 5.86669 8.92511 6.04158 9.27533 6.39135C9.62511 6.74158 9.8 7.16669 9.8 7.66669C9.8 8.16669 9.62511 8.59158 9.27533 8.94135C8.92511 9.29158 8.5 9.46669 8 9.46669ZM8 12.6667C6.45555 12.6667 5.04444 12.2585 3.76667 11.442C2.48889 10.6251 1.52222 9.52224 0.866666 8.13335C0.833333 8.0778 0.811111 8.00824 0.8 7.92469C0.788888 7.84158 0.783333 7.75558 0.783333 7.66669C0.783333 7.5778 0.788888 7.49158 0.8 7.40802C0.811111 7.32491 0.833333 7.25558 0.866666 7.20002C1.52222 5.81113 2.48889 4.70846 3.76667 3.89202C5.04444 3.07513 6.45555 2.66669 8 2.66669C9.54444 2.66669 10.9556 3.07513 12.2333 3.89202C13.5111 4.70846 14.4778 5.81113 15.1333 7.20002C15.1667 7.25558 15.1889 7.32491 15.2 7.40802C15.2111 7.49158 15.2167 7.5778 15.2167 7.66669C15.2167 7.75558 15.2111 7.84158 15.2 7.92469C15.1889 8.00824 15.1667 8.0778 15.1333 8.13335C14.4778 9.52224 13.5111 10.6251 12.2333 11.442C10.9556 12.2585 9.54444 12.6667 8 12.6667ZM8 11.3334C9.25556 11.3334 10.4084 11.0027 11.4587 10.3414C12.5084 9.68047 13.3111 8.78891 13.8667 7.66669C13.3111 6.54446 12.5084 5.65269 11.4587 4.99135C10.4084 4.33046 9.25556 4.00002 8 4.00002C6.74444 4.00002 5.59156 4.33046 4.54133 4.99135C3.49156 5.65269 2.68889 6.54446 2.13333 7.66669C2.68889 8.78891 3.49156 9.68047 4.54133 10.3414C5.59156 11.0027 6.74444 11.3334 8 11.3334Z" fill="black"/>
</svg>
