<svg width="17" height="16" viewBox="0 0 17 16" fill="none" xmlns="http://www.w3.org/2000/svg">
<g clip-path="url(#clip0_114_159)">
<path d="M8.49999 10.6667C9.33333 10.6667 10.0418 10.3751 10.6253 9.792C11.2084 9.20845 11.5 8.5 11.5 7.66667C11.5 6.83333 11.2084 6.12489 10.6253 5.54133C10.0418 4.95822 9.33333 4.66667 8.49999 4.66667C7.66666 4.66667 6.95821 4.95822 6.37466 5.54133C5.79155 6.12489 5.49999 6.83333 5.49999 7.66667C5.49999 8.5 5.79155 9.20845 6.37466 9.792C6.95821 10.3751 7.66666 10.6667 8.49999 10.6667ZM8.49999 9.46667C7.99999 9.46667 7.5751 9.29156 7.22533 8.94133C6.8751 8.59156 6.69999 8.16667 6.69999 7.66667C6.69999 7.16667 6.8751 6.74156 7.22533 6.39133C7.5751 6.04156 7.99999 5.86667 8.49999 5.86667C8.99999 5.86667 9.4251 6.04156 9.77533 6.39133C10.1251 6.74156 10.3 7.16667 10.3 7.66667C10.3 8.16667 10.1251 8.59156 9.77533 8.94133C9.4251 9.29156 8.99999 9.46667 8.49999 9.46667ZM8.49999 12.6667C6.95555 12.6667 5.54444 12.2584 4.26666 11.442C2.98888 10.6251 2.02221 9.52222 1.36666 8.13333C1.33333 8.07778 1.3111 8.00822 1.29999 7.92467C1.28888 7.84156 1.28333 7.75556 1.28333 7.66667C1.28333 7.57778 1.28888 7.49156 1.29999 7.408C1.3111 7.32489 1.33333 7.25556 1.36666 7.2C2.02221 5.81111 2.98888 4.70845 4.26666 3.892C5.54444 3.07511 6.95555 2.66667 8.49999 2.66667C10.0444 2.66667 11.4555 3.07511 12.7333 3.892C14.0111 4.70845 14.9778 5.81111 15.6333 7.2C15.6667 7.25556 15.6889 7.32489 15.7 7.408C15.7111 7.49156 15.7167 7.57778 15.7167 7.66667C15.7167 7.75556 15.7111 7.84156 15.7 7.92467C15.6889 8.00822 15.6667 8.07778 15.6333 8.13333C14.9778 9.52222 14.0111 10.6251 12.7333 11.442C11.4555 12.2584 10.0444 12.6667 8.49999 12.6667ZM8.49999 11.3333C9.75555 11.3333 10.9084 11.0027 11.9587 10.3413C13.0084 9.68045 13.8111 8.78889 14.3667 7.66667C13.8111 6.54445 13.0084 5.65267 11.9587 4.99133C10.9084 4.33045 9.75555 4 8.49999 4C7.24444 4 6.09155 4.33045 5.04133 4.99133C3.99155 5.65267 3.18888 6.54445 2.63333 7.66667C3.18888 8.78889 3.99155 9.68045 5.04133 10.3413C6.09155 11.0027 7.24444 11.3333 8.49999 11.3333Z" fill="white"/>
</g>
<defs>
<clipPath id="clip0_114_159">
<rect width="16" height="16" fill="white" transform="translate(0.5)"/>
</clipPath>
</defs>
</svg>
