<svg width="17" height="16" viewBox="0 0 17 16" fill="none" xmlns="http://www.w3.org/2000/svg">
<g clip-path="url(#clip0_114_125)">
<path d="M2.83332 6C2.96518 6 3.09407 5.9609 3.2037 5.88765C3.31334 5.81439 3.39878 5.71027 3.44924 5.58846C3.4997 5.46664 3.5129 5.33259 3.48718 5.20327C3.46146 5.07395 3.39796 4.95516 3.30473 4.86193C3.21149 4.76869 3.0927 4.7052 2.96338 4.67948C2.83406 4.65375 2.70002 4.66696 2.5782 4.71741C2.45638 4.76787 2.35226 4.85332 2.27901 4.96295C2.20576 5.07259 2.16666 5.20148 2.16666 5.33333C2.16666 5.51014 2.23689 5.67971 2.36192 5.80474C2.48694 5.92976 2.65651 6 2.83332 6ZM5.49999 6H10.1667C10.6971 6 11.2058 5.78929 11.5809 5.41421C11.9559 5.03914 12.1667 4.53043 12.1667 4C12.1667 3.46957 11.9559 2.96086 11.5809 2.58579C11.2058 2.21071 10.6971 2 10.1667 2C9.81594 2.00145 9.47153 2.0933 9.16666 2.26667C9.09027 2.31022 9.02324 2.36846 8.96946 2.43802C8.91567 2.50759 8.87617 2.5871 8.85324 2.672C8.83032 2.75689 8.82441 2.84548 8.83586 2.93267C8.84732 3.01985 8.87591 3.10391 8.91999 3.18C8.9641 3.25584 9.02274 3.32222 9.09256 3.37535C9.16237 3.42847 9.24199 3.4673 9.32684 3.48959C9.41169 3.51189 9.5001 3.51722 9.58702 3.50528C9.67393 3.49333 9.75763 3.46436 9.83332 3.42C9.93588 3.36482 10.0502 3.33509 10.1667 3.33333C10.3435 3.33333 10.513 3.40357 10.6381 3.5286C10.7631 3.65362 10.8333 3.82319 10.8333 4C10.8333 4.17681 10.7631 4.34638 10.6381 4.4714C10.513 4.59643 10.3435 4.66667 10.1667 4.66667H5.49999C5.32318 4.66667 5.15361 4.7369 5.02859 4.86193C4.90356 4.98695 4.83332 5.15652 4.83332 5.33333C4.83332 5.51014 4.90356 5.67971 5.02859 5.80474C5.15361 5.92976 5.32318 6 5.49999 6ZM2.83332 8.66667H7.49999C7.6768 8.66667 7.84637 8.59643 7.97139 8.4714C8.09642 8.34638 8.16666 8.17681 8.16666 8C8.16666 7.82319 8.09642 7.65362 7.97139 7.5286C7.84637 7.40357 7.6768 7.33333 7.49999 7.33333H2.83332C2.65651 7.33333 2.48694 7.40357 2.36192 7.5286C2.23689 7.65362 2.16666 7.82319 2.16666 8C2.16666 8.17681 2.23689 8.34638 2.36192 8.4714C2.48694 8.59643 2.65651 8.66667 2.83332 8.66667ZM14.1667 6C14.2985 6 14.4274 5.9609 14.537 5.88765C14.6467 5.81439 14.7321 5.71027 14.7826 5.58846C14.833 5.46664 14.8462 5.33259 14.8205 5.20327C14.7948 5.07395 14.7313 4.95516 14.6381 4.86193C14.5448 4.76869 14.426 4.7052 14.2967 4.67948C14.1674 4.65375 14.0334 4.66696 13.9115 4.71741C13.7897 4.76787 13.6856 4.85332 13.6123 4.96295C13.5391 5.07259 13.5 5.20148 13.5 5.33333C13.5 5.51014 13.5702 5.67971 13.6953 5.80474C13.8203 5.92976 13.9898 6 14.1667 6ZM12.8333 7.33333H10.1667C9.98985 7.33333 9.82028 7.40357 9.69525 7.5286C9.57023 7.65362 9.49999 7.82319 9.49999 8C9.49999 8.17681 9.57023 8.34638 9.69525 8.4714C9.82028 8.59643 9.98985 8.66667 10.1667 8.66667H12.8333C13.0101 8.66667 13.1797 8.73691 13.3047 8.86193C13.4298 8.98695 13.5 9.15652 13.5 9.33333C13.5 9.51014 13.4298 9.67971 13.3047 9.80474C13.1797 9.92976 13.0101 10 12.8333 10C12.6565 10 12.4869 10.0702 12.3619 10.1953C12.2369 10.3203 12.1667 10.4899 12.1667 10.6667C12.1667 10.8435 12.2369 11.013 12.3619 11.1381C12.4869 11.2631 12.6565 11.3333 12.8333 11.3333C13.3638 11.3333 13.8725 11.1226 14.2475 10.7475C14.6226 10.3725 14.8333 9.86377 14.8333 9.33333C14.8333 8.8029 14.6226 8.29419 14.2475 7.91912C13.8725 7.54405 13.3638 7.33333 12.8333 7.33333ZM8.83332 10H6.16666C5.98985 10 5.82028 10.0702 5.69525 10.1953C5.57023 10.3203 5.49999 10.4899 5.49999 10.6667C5.49999 10.8435 5.57023 11.013 5.69525 11.1381C5.82028 11.2631 5.98985 11.3333 6.16666 11.3333H8.83332C9.01013 11.3333 9.1797 11.4036 9.30473 11.5286C9.42975 11.6536 9.49999 11.8232 9.49999 12C9.49999 12.1768 9.42975 12.3464 9.30473 12.4714C9.1797 12.5964 9.01013 12.6667 8.83332 12.6667C8.71687 12.6649 8.60255 12.6352 8.49999 12.58C8.42411 12.5318 8.33926 12.4994 8.25054 12.4848C8.16182 12.4702 8.07106 12.4737 7.98373 12.4951C7.8964 12.5165 7.8143 12.5553 7.74237 12.6093C7.67043 12.6632 7.61016 12.7311 7.56516 12.809C7.52016 12.8868 7.49138 12.973 7.48054 13.0622C7.4697 13.1515 7.47702 13.242 7.50207 13.3284C7.52712 13.4147 7.56938 13.4951 7.62631 13.5647C7.68324 13.6343 7.75365 13.6917 7.83332 13.7333C8.13819 13.9067 8.48261 13.9985 8.83332 14C9.36376 14 9.87246 13.7893 10.2475 13.4142C10.6226 13.0391 10.8333 12.5304 10.8333 12C10.8333 11.4696 10.6226 10.9609 10.2475 10.5858C9.87246 10.2107 9.36376 10 8.83332 10ZM3.49999 10H2.83332C2.65651 10 2.48694 10.0702 2.36192 10.1953C2.23689 10.3203 2.16666 10.4899 2.16666 10.6667C2.16666 10.8435 2.23689 11.013 2.36192 11.1381C2.48694 11.2631 2.65651 11.3333 2.83332 11.3333H3.49999C3.6768 11.3333 3.84637 11.2631 3.97139 11.1381C4.09642 11.013 4.16666 10.8435 4.16666 10.6667C4.16666 10.4899 4.09642 10.3203 3.97139 10.1953C3.84637 10.0702 3.6768 10 3.49999 10Z" fill="white"/>
</g>
<defs>
<clipPath id="clip0_114_125">
<rect width="16" height="16" fill="white" transform="translate(0.5)"/>
</clipPath>
</defs>
</svg>
