<svg width="16" height="16" viewBox="0 0 16 16" fill="none" xmlns="http://www.w3.org/2000/svg">
<path d="M2.33333 6C2.46519 6 2.59408 5.9609 2.70371 5.88765C2.81335 5.81439 2.8988 5.71027 2.94925 5.58846C2.99971 5.46664 3.01292 5.33259 2.98719 5.20327C2.96147 5.07395 2.89797 4.95516 2.80474 4.86193C2.7115 4.76869 2.59272 4.7052 2.46339 4.67948C2.33407 4.65375 2.20003 4.66696 2.07821 4.71741C1.95639 4.76787 1.85228 4.85332 1.77902 4.96295C1.70577 5.07259 1.66667 5.20148 1.66667 5.33333C1.66667 5.51014 1.73691 5.67971 1.86193 5.80474C1.98695 5.92976 2.15652 6 2.33333 6ZM5 6H9.66667C10.1971 6 10.7058 5.78929 11.0809 5.41421C11.456 5.03914 11.6667 4.53043 11.6667 4C11.6667 3.46957 11.456 2.96086 11.0809 2.58579C10.7058 2.21071 10.1971 2 9.66667 2C9.31595 2.00145 8.97154 2.0933 8.66667 2.26667C8.59028 2.31022 8.52326 2.36846 8.46947 2.43802C8.41568 2.50759 8.37618 2.5871 8.35325 2.672C8.33033 2.75689 8.32442 2.84548 8.33588 2.93267C8.34733 3.01985 8.37592 3.10391 8.42 3.18C8.46411 3.25584 8.52275 3.32222 8.59257 3.37535C8.66238 3.42847 8.742 3.4673 8.82685 3.48959C8.9117 3.51189 9.00011 3.51722 9.08703 3.50528C9.17394 3.49333 9.25764 3.46436 9.33333 3.42C9.4359 3.36482 9.55022 3.33509 9.66667 3.33333C9.84348 3.33333 10.013 3.40357 10.1381 3.5286C10.2631 3.65362 10.3333 3.82319 10.3333 4C10.3333 4.17681 10.2631 4.34638 10.1381 4.4714C10.013 4.59643 9.84348 4.66667 9.66667 4.66667H5C4.82319 4.66667 4.65362 4.7369 4.5286 4.86193C4.40357 4.98695 4.33333 5.15652 4.33333 5.33333C4.33333 5.51014 4.40357 5.67971 4.5286 5.80474C4.65362 5.92976 4.82319 6 5 6ZM2.33333 8.66667H7C7.17681 8.66667 7.34638 8.59643 7.47141 8.4714C7.59643 8.34638 7.66667 8.17681 7.66667 8C7.66667 7.82319 7.59643 7.65362 7.47141 7.5286C7.34638 7.40357 7.17681 7.33333 7 7.33333H2.33333C2.15652 7.33333 1.98695 7.40357 1.86193 7.5286C1.73691 7.65362 1.66667 7.82319 1.66667 8C1.66667 8.17681 1.73691 8.34638 1.86193 8.4714C1.98695 8.59643 2.15652 8.66667 2.33333 8.66667ZM13.6667 6C13.7985 6 13.9274 5.9609 14.037 5.88765C14.1467 5.81439 14.2321 5.71027 14.2826 5.58846C14.333 5.46664 14.3462 5.33259 14.3205 5.20327C14.2948 5.07395 14.2313 4.95516 14.1381 4.86193C14.0448 4.76869 13.9261 4.7052 13.7967 4.67948C13.6674 4.65375 13.5334 4.66696 13.4115 4.71741C13.2897 4.76787 13.1856 4.85332 13.1124 4.96295C13.0391 5.07259 13 5.20148 13 5.33333C13 5.51014 13.0702 5.67971 13.1953 5.80474C13.3203 5.92976 13.4899 6 13.6667 6ZM12.3333 7.33333H9.66667C9.48986 7.33333 9.32029 7.40357 9.19526 7.5286C9.07024 7.65362 9 7.82319 9 8C9 8.17681 9.07024 8.34638 9.19526 8.4714C9.32029 8.59643 9.48986 8.66667 9.66667 8.66667H12.3333C12.5101 8.66667 12.6797 8.73691 12.8047 8.86193C12.9298 8.98695 13 9.15652 13 9.33333C13 9.51014 12.9298 9.67971 12.8047 9.80474C12.6797 9.92976 12.5101 10 12.3333 10C12.1565 10 11.987 10.0702 11.8619 10.1953C11.7369 10.3203 11.6667 10.4899 11.6667 10.6667C11.6667 10.8435 11.7369 11.013 11.8619 11.1381C11.987 11.2631 12.1565 11.3333 12.3333 11.3333C12.8638 11.3333 13.3725 11.1226 13.7475 10.7475C14.1226 10.3725 14.3333 9.86377 14.3333 9.33333C14.3333 8.8029 14.1226 8.29419 13.7475 7.91912C13.3725 7.54405 12.8638 7.33333 12.3333 7.33333ZM8.33333 10H5.66667C5.48986 10 5.32029 10.0702 5.19526 10.1953C5.07024 10.3203 5 10.4899 5 10.6667C5 10.8435 5.07024 11.013 5.19526 11.1381C5.32029 11.2631 5.48986 11.3333 5.66667 11.3333H8.33333C8.51015 11.3333 8.67972 11.4036 8.80474 11.5286C8.92976 11.6536 9 11.8232 9 12C9 12.1768 8.92976 12.3464 8.80474 12.4714C8.67972 12.5964 8.51015 12.6667 8.33333 12.6667C8.21688 12.6649 8.10256 12.6352 8 12.58C7.92412 12.5318 7.83927 12.4994 7.75055 12.4848C7.66183 12.4702 7.57107 12.4737 7.48374 12.4951C7.39641 12.5165 7.31431 12.5553 7.24238 12.6093C7.17045 12.6632 7.11017 12.7311 7.06517 12.809C7.02018 12.8868 6.99139 12.973 6.98055 13.0622C6.96971 13.1515 6.97703 13.242 7.00208 13.3284C7.02713 13.4147 7.0694 13.4951 7.12632 13.5647C7.18325 13.6343 7.25366 13.6917 7.33333 13.7333C7.6382 13.9067 7.98262 13.9985 8.33333 14C8.86377 14 9.37248 13.7893 9.74755 13.4142C10.1226 13.0391 10.3333 12.5304 10.3333 12C10.3333 11.4696 10.1226 10.9609 9.74755 10.5858C9.37248 10.2107 8.86377 10 8.33333 10ZM3 10H2.33333C2.15652 10 1.98695 10.0702 1.86193 10.1953C1.73691 10.3203 1.66667 10.4899 1.66667 10.6667C1.66667 10.8435 1.73691 11.013 1.86193 11.1381C1.98695 11.2631 2.15652 11.3333 2.33333 11.3333H3C3.17681 11.3333 3.34638 11.2631 3.47141 11.1381C3.59643 11.013 3.66667 10.8435 3.66667 10.6667C3.66667 10.4899 3.59643 10.3203 3.47141 10.1953C3.34638 10.0702 3.17681 10 3 10Z" fill="black"/>
</svg>
